<svg xmlns="http://www.w3.org/2000/svg"  viewBox="0 0 80 80" width="16px" height="16px"><circle cx="46" cy="43" r="32.5" fill="#f78f8f"/><path fill="#c74343" d="M46,76c-18.196,0-33-14.804-33-33s14.804-33,33-33s33,14.804,33,33S64.196,76,46,76z M46,11 c-17.645,0-32,14.355-32,32c0,17.645,14.355,32,32,32c17.645,0,32-14.355,32-32C78,25.355,63.645,11,46,11z"/><path fill="#ffc49c" d="M46,10.5c-0.168,0-0.333,0.01-0.5,0.013V42.5h32.987C78.219,24.782,63.782,10.5,46,10.5z"/><path fill="#c74343" d="M78.995,43H45V10.02l0.698-0.013C45.799,10.003,45.898,10,46,10 c17.918,0,32.716,14.576,32.987,32.492L78.995,43z M46,42h31.976C77.443,24.86,63.205,11,46,11V42z"/><g><path fill="#ef7575" d="M35.883,61.5H8.117c-3.102,0-5.617-2.515-5.617-5.617V29.117c0-3.102,2.515-5.617,5.617-5.617 h27.766c3.102,0,5.617,2.515,5.617,5.617v26.766C41.5,58.985,38.985,61.5,35.883,61.5z"/><path fill="#c43737" d="M35.883,62H8.117C4.744,62,2,59.256,2,55.883V29.117C2,25.744,4.744,23,8.117,23h27.766 C39.256,23,42,25.744,42,29.117v26.766C42,59.256,39.256,62,35.883,62z M8.117,24C5.295,24,3,26.295,3,29.117v26.766 C3,58.704,5.295,61,8.117,61h27.766C38.705,61,41,58.704,41,55.883V29.117C41,26.295,38.705,24,35.883,24H8.117z"/></g><g><path fill="#fff" d="M23.035,32H17h-1h-3v23h4v-8h5.75c3.834,0,7.731-2.754,8.193-6.561 C31.497,35.878,27.486,32,23.035,32z M22.329,43L17,43v-7h5.5c2.147,0,3.842,1.932,3.441,4.152C25.636,41.842,24.046,43,22.329,43z"/></g></svg>