<svg width="61" height="61" viewBox="0 0 61 61" fill="none" xmlns="http://www.w3.org/2000/svg">
<path d="M37.2001 35.924C39.2195 35.924 40.8565 34.075 40.8565 31.794C40.8565 29.5131 39.2195 27.6641 37.2001 27.6641C35.1807 27.6641 33.5437 29.5131 33.5437 31.794C33.5437 34.075 35.1807 35.924 37.2001 35.924Z" fill="url(#paint0_linear_102_659)"/>
<path d="M23.8634 35.924C25.8828 35.924 27.5199 34.075 27.5199 31.794C27.5199 29.5131 25.8828 27.6641 23.8634 27.6641C21.8441 27.6641 20.207 29.5131 20.207 31.794C20.207 34.075 21.8441 35.924 23.8634 35.924Z" fill="url(#paint1_linear_102_659)"/>
<path d="M30.5317 0.130371C13.8052 0.130371 0.245117 13.6905 0.245117 30.4169C0.245117 47.1434 13.8052 60.7035 30.5317 60.7035C47.2581 60.7035 60.8182 47.1434 60.8182 30.4169C60.8182 13.6905 47.2581 0.130371 30.5317 0.130371ZM50.7369 41.1604C47.1301 44.3501 40.1683 46.2485 40.1683 46.2485L38.1033 42.8069C38.1033 42.8069 39.48 42.1186 41.545 40.7419L40.8566 40.0536C40.8566 40.0536 36.0383 42.8069 30.5317 42.8069C25.025 42.8069 20.2067 40.0536 20.2067 40.0536L19.5184 40.7419C21.5834 42.1186 22.96 42.8069 22.96 42.8069L20.895 46.2485C20.895 46.2485 13.9333 44.3501 10.3264 41.1604C10.0291 40.8975 9.88037 40.512 9.88588 40.1155C9.95471 35.545 10.7986 24.255 15.8386 17.6443C15.9928 17.4419 16.2034 17.285 16.4374 17.1872C21.1002 15.2392 25.025 14.5853 25.025 14.5853L26.4017 17.3386C26.4017 17.3386 28.4667 16.6503 30.5317 16.6503C32.5967 16.6503 34.6617 17.3386 34.6617 17.3386L36.0383 14.5853C36.0383 14.5853 39.9632 15.2392 44.6246 17.1858C44.8586 17.2836 45.0692 17.4405 45.2234 17.6429C50.2634 24.2536 51.1073 35.5436 51.1761 40.1141C51.183 40.512 51.0343 40.8961 50.7369 41.1604Z" fill="url(#paint2_linear_102_659)"/>
<defs>
<linearGradient id="paint0_linear_102_659" x1="37.2001" y1="27.6641" x2="37.2001" y2="35.924" gradientUnits="userSpaceOnUse">
<stop stop-color="white"/>
<stop offset="1" stop-color="white"/>
</linearGradient>
<linearGradient id="paint1_linear_102_659" x1="23.8634" y1="27.6641" x2="23.8634" y2="35.924" gradientUnits="userSpaceOnUse">
<stop stop-color="white"/>
<stop offset="1" stop-color="white"/>
</linearGradient>
<linearGradient id="paint2_linear_102_659" x1="30.5317" y1="0.130371" x2="30.5317" y2="60.7035" gradientUnits="userSpaceOnUse">
<stop stop-color="white"/>
<stop offset="1" stop-color="white"/>
</linearGradient>
</defs>
</svg>
