<svg width="61" height="61" viewBox="0 0 61 61" fill="none" xmlns="http://www.w3.org/2000/svg">
<path fill-rule="evenodd" clip-rule="evenodd" d="M61 30.5C61 47.3445 47.3445 61 30.5 61C13.6553 61 0 47.3445 0 30.5C0 13.6553 13.6553 0 30.5 0C47.3445 0 61 13.6553 61 30.5ZM15.2653 21.35C15.2653 19.6725 16.6225 18.3 18.3 18.3H42.7C44.3775 18.3 45.75 19.6725 45.75 21.35V39.65C45.75 41.3275 44.3775 42.7 42.7 42.7H18.3C16.6225 42.7 15.25 41.3275 15.25 39.65L15.2653 21.35ZM30.5 32.025L18.3 24.3999V39.65H42.7V24.3999L30.5 32.025ZM30.5 28.975L18.3 21.35H42.7L30.5 28.975Z" fill="white"/>
</svg>
