<svg width="63" height="63" viewBox="0 0 63 63" fill="none" xmlns="http://www.w3.org/2000/svg">
<path d="M43.9694 19.2575C43.9815 19.2575 43.9977 19.2575 44.0139 19.2575C44.4372 19.2575 44.8301 19.3891 45.1521 19.6159L45.146 19.6119C45.3809 19.8164 45.5389 20.104 45.5774 20.4281V20.4341C45.6179 20.6812 45.6402 20.9647 45.6402 21.2543C45.6402 21.386 45.6361 21.5156 45.626 21.6452V21.627C45.1703 26.4248 43.1937 38.0597 42.1892 43.4306C41.7639 45.705 40.9275 46.4665 40.1174 46.5394C38.3574 46.7034 37.0208 45.3769 35.3155 44.259C32.6463 42.5071 31.1375 41.4176 28.5472 39.7103C25.5519 37.7397 27.4941 36.6522 29.1993 34.8821C29.6469 34.4163 37.4056 27.3584 37.5575 26.7184C37.5656 26.6799 37.5696 26.6374 37.5696 26.5929C37.5696 26.4349 37.5109 26.2911 37.4157 26.1817C37.3104 26.1129 37.1788 26.0744 37.041 26.0744C36.9499 26.0744 36.8628 26.0926 36.7818 26.123L36.7859 26.121C36.5185 26.1817 32.2547 28.9995 23.9945 34.5743C23.0933 35.2852 21.9551 35.7348 20.7156 35.7874H20.7035C18.9476 35.5748 17.3538 35.1839 15.8409 34.627L15.9908 34.6756C14.0911 34.0558 12.5823 33.7298 12.7119 32.6807C12.7808 32.1352 13.5328 31.577 14.968 31.0058C23.8088 27.1539 29.7043 24.6149 32.6544 23.3889C35.9089 21.6614 39.6819 20.2397 43.6494 19.3182L43.9673 19.2554L43.9694 19.2575ZM31.4291 1C14.6156 1.0405 1 14.6804 1 31.5C1 48.3439 14.6541 62 31.5 62C48.3459 62 62 48.3459 62 31.5C62 14.6804 48.3844 1.0405 31.5749 1H31.5709C31.5236 1 31.4764 1 31.4291 1Z" fill="white" stroke="white"/>
</svg>
