<svg width="63" height="63" viewBox="0 0 63 63" fill="none" xmlns="http://www.w3.org/2000/svg">
<path d="M57.438 15.1059C48.3132 0.999534 29.6833 -3.19425 15.2356 5.57457C1.1681 14.3434 -3.39433 33.406 5.73053 47.5124L6.49093 48.6561L3.44931 60.0937L14.8554 57.0437L15.996 57.8062C20.9386 60.475 26.2615 62 31.5843 62C37.2873 62 42.9904 60.475 47.933 57.425C62.0005 48.2749 66.1827 29.5935 57.438 15.1059ZM49.4538 44.4624C47.933 46.7499 46.032 48.2749 43.3706 48.6561C41.8497 48.6561 39.9487 49.4187 32.3447 46.3686C25.8812 43.3186 20.5584 38.3623 16.7564 32.6435C14.4752 29.9748 13.3346 26.5435 12.9544 23.1122C12.9544 20.0622 14.095 17.3934 15.996 15.4871C16.7564 14.7246 17.5168 14.3434 18.2772 14.3434H20.1782C20.9386 14.3434 21.699 14.3434 22.0792 15.8684C22.8396 17.7747 24.7406 22.3497 24.7406 22.7309C25.1208 23.1122 25.1208 23.8747 24.7406 24.256C25.1208 25.0185 24.7406 25.781 24.3604 26.1622C23.9802 26.5435 23.6 27.306 23.2198 27.6872C22.4594 28.0685 22.0792 28.831 22.4594 29.5935C23.9802 31.881 25.8812 34.1685 27.7823 36.0748C30.0635 37.9811 32.3447 39.5061 35.0061 40.6498C35.7665 41.0311 36.5269 41.0311 36.9071 40.2686C37.2873 39.5061 39.1883 37.5998 39.9487 36.8373C40.7091 36.0748 41.0893 36.0748 41.8497 36.4561L47.933 39.5061C48.6934 39.8873 49.4538 40.2686 49.834 40.6498C50.2142 41.7936 50.2142 43.3186 49.4538 44.4624Z" fill="white" stroke="white"/>
</svg>
